<svg xmlns="http://www.w3.org/2000/svg"  viewBox="0 0 80 80" width="80px" height="80px"><path fill="#8bb7f0" d="M40,77.5C16.8,77.5,2.5,74.4,2.5,59C2.5,43,26,16.1,40,16.1S77.5,43,77.5,59 C77.5,74.4,63.2,77.5,40,77.5z"/><path fill="#4e7ab5" d="M40,16.6c13.8,0,37,26.6,37,42.4c0,15-14.2,18-37,18S3,74,3,59C3,43.1,26.2,16.6,40,16.6 M40,15.6 C25.7,15.6,2,42.5,2,59s16.6,19,38,19s38-2.5,38-19S54.3,15.6,40,15.6L40,15.6z"/><path fill="#8bb7f0" d="M29.1,19.5c-0.9-0.4-7.3-3.7-7.6-8.7c1.9-0.4,10.5-2.3,18.5-2.3s16.6,1.9,18.5,2.3 c-0.3,5-6.7,8.3-7.6,8.7H29.1z"/><path fill="#4e7ab5" d="M40,9c7.4,0,15.4,1.6,17.9,2.2c-0.6,4.3-6.1,7.3-7.2,7.8H29.2c-1.1-0.5-6.6-3.5-7.2-7.8 C24.6,10.6,32.6,9,40,9 M40,8c-9.1,0-19,2.4-19,2.4c0,6,8,9.6,8,9.6h22c0,0,8-3.6,8-9.6C59,10.4,49.1,8,40,8L40,8z"/><path fill="#8bb7f0" d="M34.3,19.5L27.1,4.8c1.3-0.6,5.6-2.3,12.9-2.3c7.3,0,11.6,1.7,12.9,2.3l-7.2,14.7H34.3z"/><path fill="#4e7ab5" d="M40,3c6.5,0,10.6,1.4,12.2,2l-6.8,14H34.6L27.8,5C29.4,4.4,33.5,3,40,3 M40,2 c-9.1,0-13.6,2.6-13.6,2.6L34,20h12l7.6-15.4C53.6,4.6,49.1,2,40,2L40,2z"/><path fill="#ffeea3" d="M25.5,42c-0.3,0-0.5-0.2-0.5-0.5c0-17.1,4.9-22.1,5.1-22.4c0.1-0.1,0.2-0.1,0.4-0.1h23 c0.3,0,0.5,0.2,0.5,0.5S53.8,20,53.5,20H30.7C30,20.9,26,26.5,26,41.5C26,41.8,25.8,42,25.5,42z"/><path fill="#ffeea3" d="M18.5 37c0 0-.1 0-.1 0-.3-.1-.4-.3-.4-.6C21.6 23 29.9 19.2 30.3 19c.3-.1.5 0 .7.3.1.3 0 .5-.3.7-.1 0-8.3 3.8-11.7 16.7C18.9 36.9 18.7 37 18.5 37zM35.3 55.2c.4 1.9 1.2 3.3 2.3 4.3 1.1 1 2.6 1.4 4.6 1.4 1 0 2-.1 3-.4 1-.3 1.9-.6 2.8-1.1v3.3c-1 .4-2 .8-3 1-1 .2-2.1.3-3.2.3-3 0-5.3-.7-7.1-2.2s-2.9-3.7-3.4-6.6H28v-2.7h3c0-.3 0-.5 0-.8s0-.5 0-.8c0-.3 0-.7 0-1 0-.3 0-.7.1-1H28v-2.7h3.5c.3-1.4.8-2.7 1.4-3.8s1.4-2.1 2.3-2.9c.9-.8 1.9-1.4 3.1-1.8 1.1-.4 2.4-.6 3.8-.6 1.1 0 2.2.1 3.1.3 1 .2 1.9.5 2.8.9v3.4c-.9-.5-1.8-.9-2.7-1.2-.9-.3-2-.4-3.1-.4-1.7 0-3.2.5-4.3 1.5-1.1 1-2 2.5-2.5 4.5h8.5v2.7h-8.9c0 .3 0 .6-.1.9 0 .3 0 .6 0 .9 0 .3 0 .7 0 .9 0 .3 0 .6 0 .9h8.9v2.7L35.3 55.2 35.3 55.2z"/></svg>