<svg xmlns="http://www.w3.org/2000/svg"  viewBox="0 0 80 80" width="80px" height="80px"><path fill="#e1ebf2" d="M4.5 4.5H75.5V75.5H4.5z"/><path fill="#788b9c" d="M75,5v70H5V5H75 M76,4H4v72h72V4L76,4z"/><path fill="#b0c1d4" d="M32.5 42.5H47.5V49.5H32.5z"/><path fill="#66798f" d="M47 43v6H33v-6H47M48 42H32v8h16V42L48 42zM16.5 32.5H31.5V41.5H16.5z"/><path fill="#36404d" d="M31,33v8H17v-8H31 M32,32H16v10h16V32L32,32z"/><g><path fill="#66798f" d="M48.5 32.5H63.5V41.5H48.5z"/><path fill="#36404d" d="M63,33v8H49v-8H63 M64,32H48v10h16V32L64,32z"/></g><g><path fill="#66798f" d="M16.5 56.5H63.5V65.5H16.5z"/><path fill="#36404d" d="M63,57v8H17v-8H63 M64,56H16v10h48V56L64,56z"/></g></svg>